<?xml version="1.0" encoding="UTF-8" standalone="no"?>
<!-- Created with Inkscape (http://www.inkscape.org/) -->

<svg
   xmlns:dc="http://purl.org/dc/elements/1.1/"
   xmlns:cc="http://creativecommons.org/ns#"
   xmlns:rdf="http://www.w3.org/1999/02/22-rdf-syntax-ns#"
   xmlns:svg="http://www.w3.org/2000/svg"
   xmlns="http://www.w3.org/2000/svg"
   xmlns:sodipodi="http://sodipodi.sourceforge.net/DTD/sodipodi-0.dtd"
   xmlns:inkscape="http://www.inkscape.org/namespaces/inkscape"
   id="svg3100"
   version="1.1"
   inkscape:version="0.48.2 r9819"
   width="2500"
   height="1200"
   sodipodi:docname="cablejs-2500x1200.png">
  <metadata
     id="metadata3106">
    <rdf:RDF>
      <cc:Work
         rdf:about="">
        <dc:format>image/svg+xml</dc:format>
        <dc:type
           rdf:resource="http://purl.org/dc/dcmitype/StillImage" />
        <dc:title></dc:title>
      </cc:Work>
    </rdf:RDF>
  </metadata>
  <defs
     id="defs3104" />
  <sodipodi:namedview
     pagecolor="#ffffff"
     bordercolor="#666666"
     borderopacity="1"
     objecttolerance="10"
     gridtolerance="10"
     guidetolerance="10"
     inkscape:pageopacity="0"
     inkscape:pageshadow="2"
     inkscape:window-width="1545"
     inkscape:window-height="923"
     id="namedview3102"
     showgrid="false"
     inkscape:zoom="0.27115385"
     inkscape:cx="813.21834"
     inkscape:cy="339.21476"
     inkscape:window-x="0"
     inkscape:window-y="0"
     inkscape:window-maximized="0"
     inkscape:current-layer="svg3100" />
  <path
     style="fill:#000000"
     d="m 152.58276,1129.9243 c -2.39632,-0.4711 -8.09789,-2.6672 -12.67015,-4.8803 -7.35376,-3.5595 -8.9676,-4.8617 -13.98351,-11.2839 -7.57507,-9.6989 -11.79984,-18.3311 -17.48903,-35.7346 -2.61161,-7.989 -5.65321,-16.7755 -6.75911,-19.5255 -1.10591,-2.75 -2.490865,-7.925 -3.077685,-11.5 -0.58682,-3.575 -1.27631,-7.4 -1.5322,-8.5 -1.50366,-6.4639 -2.57078,-11.3045 -2.97607,-13.5 -0.25383,-1.375 -0.72192,-3.625 -1.04021,-5 -0.31829,-1.375 -0.80677,-4.6722 -1.08551,-7.3271 -0.27875,-2.6549 -0.69026,-5.1299 -0.91448,-5.5 -0.22422,-0.3701 -0.69144,-3.5979 -1.03827,-7.17293 -0.34684,-3.575 -0.79975,-7.85 -1.00647,-9.5 -0.20672,-1.65 -0.68545,-8.625 -1.06384,-15.5 -0.37838,-6.875 -0.90698,-14.975 -1.17466,-18 -0.87965,-9.9407 -0.93638,-77.2909 -0.0733,-87 0.46448,-5.225 0.99568,-11.975 1.18045,-15 0.48271,-7.9031 1.67752,-15.3285 2.66772,-16.5791 0.46995,-0.5935 1.30396,-5.9935 1.85336,-12 1.0857,-11.8697 5.53872,-41.0903 6.99806,-45.9209 0.49847,-1.65 1.439585,-5.025 2.091355,-7.5 0.65178,-2.475 1.80727,-6.4926 2.56776,-8.9281 0.7605,-2.4355 1.38272,-5.6714 1.38272,-7.191 0,-1.5196 0.45182,-3.0421 1.00403,-3.3834 1.0441,-0.6452 0.70448,-5.325 -0.92146,-12.6972 -1.07728,-4.8845 -2.77783,-17.403 -3.57272,-26.30027 -0.29482,-3.3 -0.82215,-7.575 -1.17184,-9.5 -0.72004,-3.96371 -0.815935,-4.58119 -1.785855,-11.5 -0.38551,-2.75 -0.87678,-6.125 -1.09171,-7.5 -0.21493,-1.375 -0.6447,-4.75 -0.95504,-7.5 -0.31034,-2.75 -0.98601,-7.7 -1.50149,-11 -0.51548,-3.3 -1.18494,-10.83883 -1.48769,-16.75296 -0.30275,-5.91412 -0.76853,-13.11412 -1.03505,-16 -2.38934,-25.87082 -2.85324,-35.27182 -2.87423,-58.24704 -0.0242,-26.44906 1.26807,-63.3465 2.92435,-83.5 0.20341,-2.475 0.85283,-11.475 1.44318,-20 2.296,-33.15611 4.44255,-50.50419 9.898715,-80 1.06827,-5.775 2.19952,-12.975 2.51389,-16 0.31437,-3.025 1.25417,-9.55 2.08845,-14.5 2.05054,-12.16649 1.92966,-16.8518 -0.8954,-34.70631 -1.33092,-8.41153 -2.69786,-17.54369 -3.03763,-20.29369 -0.33977,-2.75 -0.81372,-6.575 -1.05323,-8.5 -0.23951,-1.925 -0.71925,-6.425 -1.06608,-10 -0.34684,-3.575 -0.76903,-6.72996 -0.93821,-7.01101 -0.16919,-0.28106 -0.60331,-5.90606 -0.96471,-12.5 -0.36141,-6.59395 -0.85362,-12.68818 -1.093795,-13.54275 -0.24018,-0.85456 0.510465,-10.30456 1.668085,-21 1.15762,-10.69543 2.46083,-23.72124 2.89602,-28.94624 0.4352,-5.225 1.32245,-11.975 1.97167,-15 6.56039,-30.56774 8.74091,-38.84885 12.40815,-47.12322 3.55584,-8.02301 9.18184,-16.51476 15.15645,-22.87678 2.84079,-3.025 6.27328,-7.16524 7.62775,-9.20052 4.24287,-6.37552 29.18853,-28.097911 35.59514,-30.995851 4.21606,-1.90708 15.55649,-4.70217 31.44841,-7.75113 9.3093,-1.78604 14.58439,-2.0525 40.63342,-2.0525 l 29.93528,0 0.41941,2.25 c 0.41305,2.21582 -1.00477,19.14143 -3.16222,37.750001 -0.60578,5.225 -1.5206,15.8 -2.03292,23.5 -0.51232,7.7 -1.37228,16.925 -1.91101,20.5 -0.53873,3.575 -1.26748,11.17284 -1.61946,16.88409 -0.35197,5.71126 -1.25478,12.74459 -2.00624,15.62964 -0.75146,2.88505 -1.6429,11.2622 -1.98098,18.6159 -0.33808,7.35371 -1.26577,16.47466 -2.06153,20.26879 -0.79576,3.79413 -1.16848,8.38222 -0.82825,10.19576 0.34022,1.81353 0.0598,7.25924 -0.62324,12.10158 -0.68299,4.84233 -1.38871,9.92924 -1.56824,11.30424 -0.17954,1.375 -0.76128,4.975 -1.29276,8 -0.53147,3.025 -1.06715,6.175 -1.1904,7 -1.73653,11.62425 7.21495,4.57692 10.16156,-8 0.451,-1.925 1.5471,-6.425 2.43576,-10 2.7831,-11.19605 3.32925,-14.98225 4.97648,-34.5 0.88195,-10.45 2.01298,-21.925 2.51341,-25.5 0.50043,-3.575 1.18675,-10.775 1.52514,-16 0.3384,-5.225 1.02235,-11.34964 1.51989,-13.61031 0.49753,-2.26067 1.4078,-9.46067 2.0228,-16 0.61501,-6.53933 1.25643,-13.23969 1.42537,-14.88969 0.99893,-9.75599 1.71958,-21.35633 2.45389,-39.500001 0.51789,-12.79644 1.30843,-21.5334 2.10369,-23.25 l 1.27403,-2.75 11.40687,0 c 10.38985,0 11.36175,0.15603 10.9007,1.75 -0.27839,0.9625 -1.01233,5.35 -1.63098,9.75 -0.61865,4.4 -1.54619,10.17183 -2.06122,12.82629 -0.51502,2.65446 -0.9364,6.889911 -0.9364,9.412111 0,2.5222 -0.64832,6.87537 -1.44071,9.67371 -0.7924,2.79834 -1.88859,7.56289 -2.43599,10.58789 -1.37098,7.5762 -3.77872,19.35995 -6.74278,33 -1.37446,6.325 -3.15387,15.25425 -3.95424,19.84278 -0.80038,4.58854 -1.97491,9.31354 -2.61008,10.5 -0.63518,1.18647 -1.51125,6.3796 -1.94682,11.54028 -0.43558,5.16068 -1.51574,12.93166 -2.40036,17.26886 -0.88462,4.33719 -1.44947,8.66481 -1.25521,9.61694 0.61087,2.99408 6.46597,-6.1478 7.23898,-11.3026 0.44172,-2.94561 1.74066,-5.75593 3.68278,-7.96789 2.6622,-3.03207 3.15311,-4.63346 4.35548,-14.2078 0.74531,-5.93481 1.6662,-17.07845 2.04642,-24.76363 0.38022,-7.68518 1.35992,-16.23518 2.17711,-19 0.81718,-2.76482 1.58508,-8.17694 1.70643,-12.02694 0.12135,-3.85 0.73888,-8.80209 1.37229,-11.00464 2.30449,-8.01342 5.30932,-24.87451 6.11646,-34.321491 0.45458,-5.32063 1.32304,-11.02387 1.9299,-12.67387 0.60687,-1.65 1.34978,-4.2375 1.65092,-5.75 0.53481,-2.68612 0.71022,-2.75 7.55132,-2.75 l 7.00379,0 -0.55687,9.75 c -0.78328,13.71432 -1.22176,15.76306 -5.07243,23.700651 -1.87901,3.87332 -3.41639,8.19978 -3.41639,9.61437 0,1.41459 -0.72903,5.01615 -1.62006,8.00348 -0.89104,2.98732 -2.21147,8.5815 -2.9343,12.4315 -0.72283,3.85 -1.97694,9.475 -2.7869,12.5 -0.80997,3.025 -1.78028,9.75141 -2.15623,14.94758 -0.61993,8.56805 -0.5355,9.32469 0.90696,8.12755 0.87479,-0.72601 1.59089,-1.82742 1.59132,-2.44757 0.002,-2.32026 5.96524,-13.44985 12.22923,-22.82277 3.66041,-5.47713 7.01196,-11.78562 7.70351,-14.5 3.42424,-13.44032 7.60626,-24.91468 9.67974,-26.55868 2.34852,-1.86207 3.31307,-3.746131 11.00502,-21.496111 l 4.87519,-11.25 9.75326,0 c 5.83551,0 9.75326,0.40169 9.75326,1 0,0.55 0.47656,1 1.05902,1 0.58246,0 0.7809,-0.45 0.44098,-1 -0.39185,-0.63403 2.23984,-1.00036 7.19098,-1.00098 l 7.80902,-9.7e-4 -0.22404,10.25097 c -0.61396,28.090841 -2.40358,70.469151 -3.38898,80.250981 -0.60947,6.05 -1.45546,18.425 -1.87998,27.5 -1.03623,22.15121 -2.79055,42.46629 -4.66322,54 -0.84835,5.225 -1.90205,16.33152 -2.34156,24.68116 -0.4395,8.34964 -1.06793,15.61615 -1.39651,16.14779 -1.05223,1.70255 -3.7736,24.02301 -5.56833,45.67105 -0.50157,6.05 -2.12669,17.23161 -3.61137,24.84802 -2.5916,13.29494 -2.6371,14.07375 -1.13927,19.5 1.37286,4.97351 1.39803,6.97244 0.20969,16.65198 -1.37605,11.20849 -5.93724,31.10322 -7.59021,33.10657 -1.32278,1.60317 -3.06546,9.91172 -3.61106,17.21644 -0.36682,4.91109 -0.78745,6.20206 -1.88372,5.78138 -1.68322,-0.64591 -1.88224,1.52481 -0.28614,3.12091 1.73351,1.73351 0.2051,7.55128 -3.40866,12.97481 -1.76915,2.65514 -3.27873,5.27131 -3.35462,5.81371 -0.14499,1.03633 -5.99927,19.75052 -9.38044,29.98618 -1.15305,3.49057 -1.98424,8.71855 -1.98736,12.5 -0.007,8.64506 -1.37408,13.11686 -4.99603,16.34403 -2.36691,2.10893 -2.99819,3.49694 -2.99819,6.59226 0,2.15647 -0.675,4.59585 -1.5,5.42085 -0.825,0.825 -1.5,2.45449 -1.5,3.62109 0,2.56303 -2.28456,7.18312 -4.43406,8.96705 -1.34643,1.11743 -1.56583,0.96705 -1.56512,-1.07284 8.5e-4,-2.47679 2.79768,-16.73738 3.50798,-17.88668 0.22464,-0.36348 1.7492,-7.14647 3.3879,-15.07331 1.63871,-7.92685 3.72121,-17.33745 4.62779,-20.91245 0.90658,-3.575 2.26745,-11.225 3.02416,-17 0.75671,-5.775 2.27405,-14.325 3.37187,-19 1.09783,-4.675 2.72545,-15.7 3.61695,-24.5 1.48644,-14.67264 3.8775,-29.74438 5.00933,-31.57573 0.95539,-1.54585 3.35793,-16.7631 4.01406,-25.42427 0.37498,-4.95 1.10449,-9.80893 1.62113,-10.79762 0.51664,-0.98869 1.09275,-3.91369 1.28024,-6.5 0.18749,-2.58631 0.62347,-5.82738 0.96885,-7.20238 0.34539,-1.375 1.51637,-8.8 2.60219,-16.5 1.08583,-7.7 2.39806,-16.925 2.91608,-20.5 2.62411,-18.10958 3.3474,-25.6303 3.64806,-37.93198 0.18055,-7.38759 0.59032,-14.11485 0.91059,-14.94946 0.32027,-0.83461 1.05902,-8.51522 1.64166,-17.06802 0.58264,-8.5528 1.17346,-17.12554 1.31293,-19.05054 0.13947,-1.925 0.557,-8.45 0.92785,-14.5 0.37085,-6.05 1.13384,-16.175 1.69554,-22.5 0.56171,-6.325 1.20916,-14.65 1.4388,-18.5 0.22963,-3.85 0.71713,-9.925 1.08334,-13.5 0.36621,-3.575 0.58702,-8.52639 0.49069,-11.00308 -0.0963,-2.4767 0.441,-8.7767 1.19408,-14 0.9975,-6.91872 1.13081,-12.21169 0.49104,-19.49692 -0.483,-5.5 -1.02184,-12.90496 -1.19742,-16.455461 -0.17559,-3.5505 -0.77252,-6.60654 -1.32652,-6.79121 -2.12778,-0.70926 -5.96165,9.110191 -6.66533,17.071471 -0.38039,4.30363 -1.77787,10.83614 -3.10551,14.51667 -2.23562,6.19765 -2.30914,6.98608 -0.99542,10.67521 1.66319,4.67049 1.89236,10.33763 0.55978,13.84259 -0.52057,1.3692 -1.19002,9.611 -1.48767,18.31509 -0.29764,8.7041 -0.77397,17.40064 -1.0585,19.32564 -1.36854,9.25885 -4.76402,42.92326 -5.49702,54.5 -0.45272,7.15 -1.07127,14.575 -1.37456,16.5 -0.30329,1.925 -0.80368,8.225 -1.11197,14 -0.30829,5.775 -1.0037,14.1 -1.54536,18.5 -0.54166,4.4 -1.4012,14.3 -1.9101,22 -0.50889,7.7 -1.85613,20.525 -2.99385,28.5 -1.13773,7.975 -2.79617,19.675 -3.68543,26 -0.88925,6.325 -1.95224,12.86447 -2.36218,14.53215 -0.40994,1.66768 -0.83349,7.0311 -0.94122,11.9187 -0.10772,4.88761 -0.62106,9.68106 -1.14075,10.65211 -0.5197,0.97106 -0.9449,3.89733 -0.9449,6.50284 0,2.75129 -1.07466,7.4235 -2.56343,11.14485 -1.89743,4.74282 -2.54687,8.14075 -2.49965,13.07846 0.0935,9.7837 -0.97532,24.3729 -1.91498,26.13801 -0.44882,0.84309 -1.14688,4.68288 -1.55125,8.53288 -0.40436,3.85 -1.18731,8.125 -1.73987,9.5 -0.89195,2.21951 -1.66551,5.55771 -3.24422,14 -0.25713,1.375 -0.73099,5.2 -1.05304,8.5 -0.32204,3.3 -1.39898,8.475 -2.3932,11.5 -2.28555,6.95402 -4.13315,15.6922 -4.06497,19.2252 0.0289,1.49886 -1.5287,7.61664 -3.4614,13.59507 -1.96691,6.08428 -3.51399,12.92752 -3.51399,15.54358 0,2.57054 -1.17124,7.92776 -2.60276,11.90493 -1.43152,3.97717 -3.41287,11.05622 -4.40301,15.73122 -0.99014,4.675 -3.1939,11.94996 -4.89724,16.16659 -1.70335,4.21662 -3.09699,8.14208 -3.09699,8.72324 0,0.58117 -0.98298,3.07994 -2.1844,5.55282 -1.70117,3.50153 -2.47544,4.25462 -3.5,3.40431 -1.94531,-1.61446 -1.60508,-5.50343 1.16767,-13.34696 1.71944,-4.86395 2.48098,-9.14663 2.49564,-14.03466 0.0135,-4.499 0.76622,-9.15468 2.08829,-12.91622 1.13696,-3.23486 2.46959,-9.06926 2.9614,-12.96534 2.75517,-21.82627 3.95068,-29.61019 4.80002,-31.25267 1.82804,-3.5351 4.14623,-16.92841 4.609,-26.62835 0.58095,-12.17715 4.29613,-35.46993 6.11685,-38.35041 1.71591,-2.71465 3.63407,-16.01258 4.0897,-28.35235 0.19292,-5.225 0.75102,-11.525 1.24022,-14 0.4892,-2.475 1.18998,-8.52035 1.5573,-13.43411 0.36732,-4.91376 0.83229,-9.20018 1.03328,-9.52539 0.64705,-1.04696 1.70123,-15.339 1.6257,-22.0405 -0.0403,-3.575 0.35782,-10.325 0.8847,-15 2.42382,-21.50643 3.06787,-28.04649 3.49592,-35.5 0.25269,-4.4 0.93485,-13.4 1.5159,-20 0.58106,-6.6 1.28359,-14.87844 1.56118,-18.39653 0.27759,-3.51809 0.69743,-6.70835 0.93298,-7.08948 1.25433,-2.02954 2.81721,-51.96922 1.77672,-56.7727 -0.48806,-2.25319 -4.66994,-4.17276 -6.06071,-2.78198 -0.38473,0.38473 -0.77833,6.17627 -0.87468,12.8701 -0.29387,20.41706 -0.49143,22.73857 -4.99278,58.67059 -0.86126,6.875 -1.67518,14.075 -1.80871,16 -0.13353,1.925 -0.56203,8.225 -0.95222,14 -0.39019,5.775 -1.11908,12.3 -1.61975,14.5 -0.50068,2.2 -0.92133,6.47797 -0.93477,9.5066 -0.0134,3.02863 -0.48906,7.07863 -1.05691,9 -0.56786,1.92137 -1.44418,8.6684 -1.94739,14.9934 -0.50321,6.325 -1.67383,16 -2.60139,21.5 -0.92755,5.5 -1.79592,12.25 -1.9297,15 -0.13378,2.75 -0.75585,8.375 -1.38238,12.5 -2.93288,19.30978 -3.49405,23.57019 -3.2271,24.5 0.15791,0.55 -0.20747,4.375 -0.81196,8.5 -1.88008,12.82945 -2.12759,15.19541 -2.72687,26.06593 -0.46011,8.34607 -0.26443,11.18237 0.93134,13.5 1.55787,3.01944 1.57531,2.74058 -1.16332,18.60859 -0.53864,3.12099 -1.69208,7.0528 -2.5632,8.73735 -0.87111,1.68455 -2.48541,8.58102 -3.58733,15.32548 -1.10192,6.74446 -2.51791,13.16265 -3.14665,14.26265 -0.62873,1.1 -1.29756,4.475 -1.48628,7.5 -0.18873,3.025 -0.7728,7.525 -1.29796,10 -2.61758,12.33649 -3.12369,16.3178 -3.31742,26.09664 -0.14354,7.24547 -0.64396,11.1195 -1.58237,12.25 -0.75485,0.90935 -1.06683,1.65336 -0.6933,1.65336 0.37353,0 -0.0214,1.00013 -0.87756,2.22251 -0.85618,1.22237 -1.55866,3.13487 -1.56106,4.25 -0.002,1.11512 -1.1179,5.17749 -2.47891,9.02749 -1.361,3.85 -2.48404,8.66947 -2.49564,10.70994 -0.0244,4.28435 -4.63294,23.01588 -6.63165,26.95427 -0.74364,1.46532 -1.58421,4.61532 -1.86793,7 -0.28373,2.38469 -0.80262,5.61529 -1.15311,7.17913 -0.61564,2.74697 -0.47929,2.68982 4.02328,-1.68618 5.21918,-5.07246 8.76396,-11.99714 11.08639,-21.65716 2.93332,-12.20096 3.61371,-14.03497 6.40569,-17.26658 4.65337,-5.38609 11.69522,-16.92909 13.56358,-22.23342 0.96864,-2.75 2.85142,-8.11658 4.18396,-11.92572 2.5399,-7.2605 3.8651,-9.74248 11.15479,-20.89196 2.45162,-3.74973 5.3126,-9.06816 6.35774,-11.81873 1.04513,-2.75057 3.38743,-8.00761 5.2051,-11.68232 1.81767,-3.6747 5.92361,-13.28148 9.12432,-21.3484 6.39704,-16.12284 9.50952,-21.18499 11.70211,-19.0324 0.8383,0.82301 1.32464,3.76022 1.32464,8 0,6.13033 0.18594,6.72599 2.18851,7.01102 3.51673,0.50054 6.31149,-3.12415 6.31149,-8.18576 0,-2.40585 0.74589,-6.34335 1.65754,-8.75 1.12177,-2.96138 1.71373,-7.93121 1.83141,-15.37573 0.13523,-8.55468 0.60038,-11.87317 2.09247,-14.92785 2.36897,-4.84991 3.72878,-5.38152 5.24627,-2.05099 1.4559,3.19536 1.54204,10.47884 0.12392,10.47884 -0.71576,0 -0.80933,4.04524 -0.29492,12.75 0.4144,7.0125 0.71213,13.65 0.66161,14.75 -0.0505,1.1 -0.17709,8.3 -0.28126,16 -0.10417,7.7 -0.5668,19.175 -1.02808,25.5 -0.76582,10.50095 0.12623,20.46852 1.99948,22.34177 0.2789,0.2789 -0.0552,9.8786 -0.7425,21.33266 -1.74629,29.10344 -2.32563,46.00645 -1.63823,47.79778 0.32245,0.84029 1.27839,1.52779 2.12432,1.52779 1.31576,0 1.4231,1.04778 0.74273,7.25 -0.43742,3.9875 -0.71892,9.5 -0.62555,12.25 0.19241,5.66671 -1.6722,19.48712 -2.83325,21 -0.81292,1.05925 -1.17617,4.24017 -3.48306,30.49997 -0.79722,9.075 -2.41938,20.55 -3.6048,25.5 -1.18542,4.95 -2.34207,11.025 -2.57035,13.5 -0.22827,2.475 -1.08164,7.1239 -1.89639,10.3308 -0.81475,3.2069 -1.48136,7.7249 -1.48136,10.0399 0,2.315 -0.675,6.8006 -1.5,9.968 -0.825,3.1674 -1.50277,7.4245 -1.50616,9.4601 -0.003,2.0357 -0.60083,4.8407 -1.32765,6.2333 -0.72682,1.3927 -1.89515,6.1177 -2.59628,10.5 -0.70113,4.3824 -1.61881,8.4179 -2.03929,8.9679 -0.42048,0.55 -1.0682,3.475 -1.43937,6.5 -0.37118,3.025 -1.28597,7.3 -2.03286,9.5 -0.74689,2.2 -3.03461,11.2 -5.08383,20 -3.28509,14.1073 -6.769,25.1991 -10.99335,35 -0.71118,1.65 -2.27409,6.375 -3.47313,10.5 -1.19905,4.125 -3.04138,9.1642 -4.09408,11.1982 -1.0527,2.0339 -1.914,4.6438 -1.914,5.7996 0,2.2522 -2.40837,7.5473 -4.54933,10.0022 -0.71948,0.825 -1.36418,1.8265 -1.43266,2.2254 -0.31716,1.8479 -8.02592,17.6615 -8.86122,18.1777 -1.06996,0.6613 -0.21621,-3.4905 2.13923,-10.4031 0.84335,-2.475 2.03201,-7.2 2.64146,-10.5 3.31092,-17.9277 7.57729,-36.7748 9.62059,-42.5 2.88608,-8.0865 7.23443,-26.2965 8.07954,-33.8355 0.34924,-3.1154 1.02129,-6.1577 1.49344,-6.7606 1.1145,-1.4231 4.82978,-25.7269 5.41211,-35.4039 0.51753,-8.5999 3.28237,-22.2022 4.69966,-23.121 0.87371,-0.5665 1.93378,-8.7229 1.93376,-14.879 0,-1.375 0.42145,-3.0095 0.93655,-3.6324 0.51511,-0.6228 0.85735,-2.4228 0.76055,-4 -0.0968,-1.5771 0.32763,-4.6676 0.9432,-6.8676 0.61557,-2.2 1.18108,-5.575 1.25669,-7.5 0.0756,-1.925 0.79173,-8.3372 1.59135,-14.2493 0.79963,-5.9122 1.23015,-11.1114 0.9567,-11.5539 -0.27345,-0.4424 -0.0695,-2.7077 0.4531,-5.0338 0.81573,-3.6305 2.62726,-20.76323 3.40078,-32.16297 0.13061,-1.925 0.73258,-9.125 1.33769,-16 0.60511,-6.875 1.39187,-19.925 1.74835,-29 0.35647,-9.075 0.79447,-19.875 0.97332,-24 0.62092,-14.3212 0.59532,-55.53899 -0.0388,-62.5 -0.68453,-7.51407 -2.95773,-11.85786 -3.87577,-7.40606 -0.27289,1.32333 -0.7634,4.43106 -1.09002,6.90606 -0.32662,2.475 -0.99735,7.425 -1.49051,11 -0.49316,3.575 -1.18795,10.775 -1.54397,16 -0.35602,5.225 -1.10925,10.99624 -1.67384,12.82498 -0.56459,1.82875 -0.73144,5.29279 -0.37077,7.69788 0.36066,2.40509 0.19838,6.98384 -0.36063,10.17501 -0.55901,3.19117 -1.23365,13.00213 -1.49921,21.80213 -0.26555,8.8 -0.96409,21.625 -1.55231,28.5 -0.58822,6.875 -1.25415,15.425 -1.47984,19 -0.82317,13.0395 -3.58088,36.87067 -6.01736,51.99997 -1.37289,8.525 -2.75934,21.3257 -3.081,28.4459 -0.32165,7.1202 -0.76102,13.2309 -0.97637,13.5793 -0.21534,0.3484 -0.85982,3.5228 -1.43217,7.0542 -0.57234,3.5313 -1.30169,7.5456 -1.62076,8.9206 -0.31908,1.375 -0.98234,8.575 -1.47392,16 -0.49157,7.425 -1.14787,15.075 -1.45844,17 -0.31057,1.925 -1.00308,8.45 -1.53893,14.5 -1.46479,16.5384 -1.95221,19.723 -3.52033,23 -1.40683,2.9401 -8.27701,28.6558 -11.08706,41.5 -2.01266,9.1995 -5.2633,19.8267 -6.25138,20.4373 -0.46081,0.2848 -1.1264,2.6931 -1.47908,5.3518 -0.35269,2.6587 -1.56878,7.473 -2.70243,10.6984 -1.13365,3.2254 -1.85118,6.6675 -1.59451,7.649 0.25666,0.9815 -0.44024,5.0648 -1.54868,9.074 -1.10844,4.0093 -2.05808,8.077 -2.11033,9.0395 -0.0523,0.9625 -0.44856,1.75 -0.88071,1.75 -0.43214,0 -0.78571,0.8636 -0.78571,1.919 0,1.0554 -0.65719,3.1929 -1.46042,4.75 -0.80324,1.5571 -2.63627,5.4605 -4.07342,8.6743 -1.43714,3.21373 -2.87365,5.58253 -3.19224,5.26403 -0.6198,-0.6198 2.31231,-14.77493 3.75075,-18.10733 0.47483,-1.1 1.16498,-4.475 1.53366,-7.5 0.36868,-3.025 0.91264,-5.9057 1.2088,-6.4017 0.29616,-0.496 0.66499,-2.296 0.81964,-4 0.15465,-1.704 1.6456,-10.5233 3.31323,-19.5983 1.66763,-9.075 3.04734,-17.9359 3.06603,-19.6909 0.0187,-1.7551 0.52317,-3.4934 1.12109,-3.8629 0.59791,-0.3695 0.8532,-1.5664 0.5673,-2.6597 -0.2859,-1.0933 -0.10265,-2.955 0.40722,-4.1371 0.50988,-1.1822 1.83323,-7.9994 2.94077,-15.1494 1.10755,-7.15 3.1625,-20.425 4.56655,-29.5 1.40405,-9.075 2.55861,-17.85 2.56569,-19.5 0.007,-1.65 1.05513,-10.425 2.32902,-19.5 1.27388,-9.075 2.37395,-18.075 2.4446,-20 0.0706,-1.925 0.54702,-5.975 1.05862,-9 0.5116,-3.025 0.90834,-7.1617 0.88165,-9.1928 -0.0267,-2.031 0.40826,-6.756 0.96657,-10.5 0.55831,-3.7439 0.99472,-7.7072 0.9698,-8.8072 -0.0782,-3.4516 1.21373,-19.6881 1.62001,-20.3596 0.21311,-0.3522 0.69845,-6.4904 1.07852,-13.6404 0.38007,-7.15 0.82726,-14.8 0.99374,-17 1.87063,-24.71875 2.27747,-49.30902 1.01194,-61.16396 -0.8738,-8.18531 -1.79588,-10.42925 -3.56047,-8.66466 -1.24117,1.24117 -1.53246,3.81025 -2.36159,20.82865 -1.23915,25.43424 -1.56767,29.37747 -3.08249,37 -0.87441,4.39997 -2.01094,15.87497 -2.52562,25.49997 -0.51469,9.625 -1.39924,21.1 -1.96567,25.5 -0.56643,4.4 -1.29369,12.725 -1.61613,18.5 -0.32244,5.775 -1.2142,12.9571 -1.9817,15.9601 -0.7675,3.0031 -1.39936,7.5031 -1.40414,10 -0.0111,5.8217 -2.63256,27.4716 -3.87947,32.0399 -0.52542,1.925 -1.23807,11.3215 -1.58367,20.8812 -0.44441,12.293 -1.09755,18.5868 -2.23114,21.5 -1.41347,3.6324 -2.513,15.4217 -3.64842,39.1188 -0.3029,6.3218 -1.53519,12.2473 -3.25362,15.645 -0.73574,1.4547 -1.76143,4.3797 -2.2793,6.5 -0.51787,2.1203 -1.6228,6.338 -2.4554,9.3726 -0.83259,3.0347 -1.75789,7.3097 -2.05621,9.5 -0.29831,2.1904 -1.2209,6.9074 -2.0502,10.4824 -0.82929,3.575 -1.98415,10.325 -2.56636,15 -1.06416,8.5451 -2.9086,16.72813 -5.61564,24.91433 -0.80285,2.4279 -1.21658,5.048 -0.91939,5.8225 0.29718,0.7744 -0.005,2.388 -0.67094,3.5856 -0.6662,1.1977 -1.25851,4.2026 -1.31624,6.6776 -0.0577,2.475 -0.58709,5.4 -1.17636,6.5 -0.58926,1.1 -2.54582,6.2701 -4.34789,11.4892 -2.87868,8.3369 -4.78211,12.0108 -6.22284,12.0108 -0.75674,0 0.45733,-10.2627 2.35496,-19.9069 1.01802,-5.1738 1.68358,-9.6777 1.47902,-10.0086 -0.20455,-0.331 0.058,-2.6229 0.58342,-5.0932 0.52544,-2.4702 1.09142,-5.6163 1.25775,-6.9913 1.02788,-8.4974 1.99963,-14.5522 3.61105,-22.50003 1.57246,-7.7556 2.90585,-18.5705 3.39051,-27.5 0.0746,-1.375 0.47371,-3.0315 0.88683,-3.6811 0.41312,-0.6496 0.77899,-3.5746 0.81303,-6.5 0.034,-2.9254 0.68623,-9.5939 1.4493,-14.8189 1.46366,-10.0221 2.31546,-18.2773 2.99232,-29 0.22567,-3.575 0.8341,-9.425 1.35206,-13 0.51796,-3.575 0.91473,-7.4 0.88171,-8.5 -0.092,-3.064 2.31562,-26.8298 2.79688,-27.6085 0.23334,-0.3775 0.65559,-4.4451 0.93833,-9.0389 0.28274,-4.5939 0.71865,-11.0526 0.96869,-14.3526 0.25004,-3.3 0.69658,-9.825 0.99232,-14.5 0.29574,-4.675 0.96175,-14.125 1.48003,-21 1.64251,-21.7879 2.30182,-39.5932 1.58666,-42.8493 -1.27328,-5.7972 -2.32141,-3.2369 -2.44528,5.9731 -0.0675,5.018 -0.2965,9.4055 -0.5089,9.75 -1.01987,1.6538 -3.01419,23.0878 -4.61748,49.6262 -0.53163,8.8 -1.4538,17.488 -2.04925,19.3067 -0.59545,1.8187 -1.02304,7.6687 -0.95019,13 0.0728,5.3313 -0.35189,13.5183 -0.94385,18.1933 -1.35441,10.6965 -3.80927,32.8494 -3.9339,35.5 -0.0517,1.1 -0.24308,7.4 -0.42525,14 -0.18217,6.6 -0.84693,14.7 -1.47725,18 -0.63033,3.3 -1.34034,8.475 -1.57782,11.5 -0.23747,3.025 -0.94446,7.975 -1.57108,11 -0.62662,3.025 -1.28601,8.425 -1.46531,12 -0.17929,3.575 -1.08829,10.1 -2.01999,14.5 -0.93169,4.40003 -1.91358,9.77503 -2.18197,11.94453 -0.26839,2.1695 -0.68808,4.2683 -0.93265,4.664 -1.03812,1.6798 -3.51219,15.9054 -3.81528,21.9375 -0.1809,3.6003 -0.86175,7.5416 -1.51301,8.7585 -0.65126,1.2169 -1.63072,5.2462 -2.17659,8.954 -2.02895,13.7816 -2.8027,17.8633 -4.31104,22.7415 -0.8503,2.75 -1.64233,5.45 -1.76007,6 -0.11774,0.55 -0.80872,1.5946 -1.5355,2.3214 -0.72679,0.7268 -1.31454,1.8518 -1.30612,2.5 0.009,0.6909 0.41644,0.5579 0.98469,-0.3214 0.56825,-0.8793 0.97571,-1.0123 0.98469,-0.3214 0.008,0.6482 -0.72522,1.9191 -1.63032,2.8242 -2.27449,2.2745 -5.40292,8.6096 -4.76296,9.6451 1.59258,2.5768 6.0284,-1.0691 8.69648,-7.1479 0.84492,-1.925 2.27732,-5.975 3.18312,-9 2.18412,-7.2941 3.84009,-10.2589 10.05366,-18 4.09948,-5.1073 6.04287,-8.8569 9.07018,-17.5 3.41356,-9.7459 7.66304,-17.3039 15.18073,-27 0.42643,-0.55 1.40924,-3.025 2.18403,-5.5 0.77478,-2.475 2.18492,-6.075 3.13365,-8 2.03744,-4.134 3.14538,-6.82103 5.48264,-13.29633 0.95218,-2.638 3.01213,-6.8162 4.57767,-9.2848 1.56553,-2.4686 2.84643,-5.087 2.84643,-5.8187 0,-0.7318 0.81785,-2.4036 1.81745,-3.7153 0.9996,-1.3117 2.42971,-3.9599 3.17802,-5.8849 0.74831,-1.925 1.95546,-4.3876 2.68255,-5.4725 0.72709,-1.0848 1.32198,-2.7723 1.32198,-3.75 0,-0.9776 0.40598,-1.7775 0.90217,-1.7775 0.4962,0 1.36047,-1.3146 1.9206,-2.9214 0.56014,-1.6068 3.2938,-7.0459 6.07481,-12.0869 2.78101,-5.041 5.49517,-10.7545 6.03145,-12.6968 0.53629,-1.9423 1.60404,-4.2657 2.37277,-5.1631 0.76874,-0.8975 3.07272,-6.0127 5.11996,-11.3672 2.04723,-5.3546 4.13984,-9.9936 4.65024,-10.3091 0.5104,-0.3154 0.928,-1.6454 0.928,-2.9555 0,-1.31 0.45,-2.66 1,-3 0.55,-0.3399 1,-1.4115 1,-2.3814 0,-2.6407 5.78429,-12.8037 8.50546,-14.9442 1.30939,-1.03 2.65609,-2.9699 2.99266,-4.3108 0.33657,-1.341 2.16218,-4.3973 4.05691,-6.7916 2.9951,-3.7849 3.44625,-5.0859 3.45474,-9.9627 0.007,-3.839 0.7836,-7.2714 2.46173,-10.876 2.19208,-4.7084 4.79945,-7.2956 6.07105,-6.024 0.25097,0.2509 0.65975,8.969 0.90842,19.3735 0.24866,10.4045 0.91317,20.7172 1.47668,22.9172 0.64313,2.5109 0.75424,9.3982 0.29846,18.5 -0.39936,7.975 -0.53135,18.1 -0.29331,22.5 0.50882,9.4053 0.4275,14.9434 -0.44785,30.5 -0.38638,6.8669 -0.22913,13.313 0.39031,16 0.70682,3.0661 0.72656,10.3952 0.062,23 -0.94433,17.91023 -1.5046,23.97153 -4.57545,49.50003 -0.79392,6.6 -1.83971,16.05 -2.32399,21 -2.27198,23.2232 -3.02781,28.401 -4.94007,33.8419 -1.12926,3.213 -2.3475,8.0604 -2.7072,10.7719 -0.51032,3.8471 -1.33903,5.507 -3.77225,7.5559 -2.67951,2.2563 -3.16505,2.3871 -3.45084,0.93 -0.18291,-0.9327 0.20493,-2.3434 0.86188,-3.135 0.65695,-0.7916 0.96997,-2.0242 0.6956,-2.7392 -0.27436,-0.715 0.52443,-7.7915 1.7751,-15.7255 1.25067,-7.934 2.06876,-14.9602 1.81798,-15.6137 -0.25077,-0.6535 0.0338,-3.8203 0.63242,-7.0373 1.69786,-9.1244 4.27128,-40.2923 4.69382,-56.849 0.71362,-27.96203 -0.38891,-73.90243 -2.15991,-90.00003 -0.24204,-2.2 -0.68751,-8.382 -0.98993,-13.7378 -0.30241,-5.3559 -0.91404,-10.7224 -1.35917,-11.9257 -0.70416,-1.9035 -0.94872,-1.6128 -1.88224,2.2379 -0.59011,2.4341 -1.3652,6.4506 -1.72244,8.9256 -0.35723,2.475 -1.28811,7.65 -2.06862,11.5 -0.78051,3.85 -1.3662,8.8 -1.30153,11 0.0647,2.2 0.0382,8.6282 -0.0589,14.2849 -0.097,5.6567 0.0692,10.6823 0.36938,11.168 0.79192,1.2814 0.22529,62.09773 -0.59673,64.04713 -0.11596,0.275 -0.30573,8.6 -0.42171,18.5 -0.11598,9.9 -0.44844,19.8 -0.73881,22 -0.29037,2.2 -1.05026,10.975 -1.68865,19.5 -1.21358,16.206 -2.16406,23.5085 -4.35528,33.4617 l -1.31247,5.9616 -5.76798,1.7123 -5.76797,1.7123 0.76648,-6.174 c 0.42156,-3.3956 0.84008,-7.9739 0.93004,-10.1739 0.09,-2.2 0.64729,-8.95 1.23851,-15 1.3284,-13.5934 1.20818,-7.3983 1.22247,-63 0.011,-42.70983 -0.44329,-58.36883 -1.65802,-57.15413 -1.12673,1.1268 -3.12995,18.284 -3.28719,28.15413 -0.0964,6.05 -0.72209,16.0454 -1.39049,22.2121 -0.72496,6.6885 -0.8645,12.1352 -0.34587,13.5 0.9342,2.4584 0.16698,23.778 -1.36728,37.9945 -0.51679,4.7886 -1.17281,14.4108 -1.45782,21.3827 -0.28501,6.972 -0.80235,13.136 -1.14966,13.698 -0.38901,0.6294 -0.1277,0.7104 0.68057,0.2108 1.00515,-0.6212 1.14516,-0.248 0.59857,1.5955 -0.39239,1.3235 -0.97055,5.1648 -1.28478,8.5362 -0.56414,6.0526 -0.61845,6.144 -4.31009,7.25 -2.05632,0.6161 -5.82405,1.1202 -8.37274,1.1202 -4.35988,0 -4.64098,-0.1627 -4.7524,-2.75 -0.0651,-1.5125 -0.038,-3.1689 0.0603,-3.681 0.0983,-0.512 0.40606,-6.137 0.68388,-12.5 0.27782,-6.3629 0.6878,-15.169 0.91107,-19.569 0.6254,-12.3247 1.40233,-59.5 0.97991,-59.5 -0.20624,0 -0.88595,2.5875 -1.51048,5.75 -0.62453,3.1625 -1.7881,7.7987 -2.58572,10.3027 -1.83599,5.7637 -2.42142,10.6009 -3.01926,24.9473 -0.26358,6.325 -0.90998,15.0745 -1.43646,19.4433 -0.73592,6.107 -0.66912,8.1263 0.28896,8.7347 0.97244,0.6175 0.95504,0.7947 -0.0792,0.8067 -0.82015,0.01 -1.25624,1.0636 -1.14403,2.7653 0.0997,1.5125 0.13364,7.8125 0.0754,14 l -0.10599,11.25 -10.05902,0 c -5.8956,0 -9.82279,-0.3822 -9.48828,-0.9235 0.87966,-1.4233 1.29799,-17.1125 0.46993,-17.6243 -0.40275,-0.2489 -0.49989,-2.1851 -0.21587,-4.3026 0.41147,-3.0678 0.15498,-3.9887 -1.2624,-4.5326 -2.62648,-1.0079 -4.2249,1.031 -2.30971,2.9462 1.2237,1.2237 1.38307,2.5982 0.75901,6.546 -0.43446,2.7483 -0.47134,5.8582 -0.082,6.9108 0.38939,1.0526 0.54573,3.9537 0.34744,6.4469 l -0.36053,4.5331 -31.82833,0 -31.82834,0 -0.32097,-9.25 c -0.17653,-5.0875 -0.27825,-34.5625 -0.22603,-65.5 0.0873,-51.7026 -0.47475,-65.48983 -2.05857,-50.5 -0.33415,3.1625 -1.07009,7.4726 -1.63544,9.5779 -0.56534,2.1054 -0.95505,6.8304 -0.86602,10.5 0.089,3.6697 -0.12185,8.4721 -0.46863,10.6721 -0.34677,2.2 -0.83967,10.75 -1.09533,19 -0.25565,8.25 -0.84551,18.6 -1.31079,23 -0.48519,4.5884 -0.46678,8.7551 0.0432,9.7707 0.48902,0.9738 0.67845,2.1115 0.42093,2.5282 -0.25751,0.4167 -0.9899,4.5678 -1.62753,9.2248 -0.63763,4.657 -1.62785,9.0318 -2.20048,9.7218 -0.73162,0.8815 -0.66472,1.7081 0.22503,2.7802 0.77987,0.9397 1.307,4.7805 1.37244,10.0001 l 0.10626,8.4746 -5.75,-2e-4 -5.75,-2e-4 -0.15685,-5.75 c -0.32537,-11.9283 -0.55821,-17.0072 -1.18049,-25.75 -0.35232,-4.95 -0.89408,-15.525 -1.20391,-23.5 -1.03046,-26.524 -1.3069,-31.1815 -1.88506,-31.7596 -0.31553,-0.3156 -0.62367,1.4138 -0.68475,3.8429 -0.0611,2.4292 -0.27181,6.6667 -0.46829,9.4167 -0.19647,2.75 -0.61451,18.275 -0.92897,34.5 -0.31446,16.225 -0.99027,31.0451 -1.5018,32.9336 -0.6279,2.3181 -0.57511,3.8612 0.16248,4.75 0.89518,1.0786 -1.41332,1.2966 -12.77992,1.2068 -7.62984,-0.06 -15.83307,-0.495 -18.2294,-0.9661 z m 76.25349,-5.6743 c 1.67834,-3.0654 3.4358,-6.733 4.67198,-9.75 1.21043,-2.9541 2.76793,-18.2672 3.45816,-34 0.19303,-4.4 1.29744,-19.25 2.45424,-33 1.1568,-13.75 2.30541,-28.825 2.55247,-33.5 0.24706,-4.675 0.67224,-11.425 0.94483,-15.00003 1.33516,-17.5103 1.68969,-24.0666 3.02815,-56 0.28656,-6.8368 0.87478,-17.6426 1.9869,-36.5 1.28057,-21.7138 1.55177,-36.5 0.66945,-36.5 -0.53148,0 -1.2798,2.7008 -1.66292,6.0018 -0.38312,3.301 -1.1023,6.2526 -1.59819,6.559 -0.49588,0.3065 -0.9016,2.5853 -0.9016,5.064 0,2.4787 -0.42502,5.3009 -0.94448,6.2715 -0.51947,0.9706 -1.17379,5.882 -1.45405,10.9141 -0.28026,5.0322 -0.86775,9.946 -1.30552,10.9195 -0.43777,0.9736 -0.79595,4.2451 -0.79595,7.2701 0,3.025 -0.41197,5.7976 -0.91549,6.1613 -0.50352,0.3637 -0.79955,2.8387 -0.65785,5.5 0.14171,2.6613 0.2144,5.2887 0.16154,5.8387 -0.27312,2.842 -1.12841,7.4336 -2.04901,11 -0.56788,2.2 -0.75674,6.3659 -0.41968,9.2576 0.39514,3.39 0.1991,5.7561 -0.5519,6.661 -0.79927,0.963 -0.83487,1.6072 -0.11346,2.0531 0.7064,0.4366 0.72774,1.2542 0.0651,2.4925 -0.54242,1.0135 -1.19477,6.9622 -1.44966,13.2193 -0.2549,6.2571 -0.71578,12.038 -1.02417,12.8465 -1.17601,3.08313 -2.65154,29.54893 -3.12045,55.97003 -0.26843,15.125 -0.85743,29.61 -1.30889,32.189 -0.45145,2.5789 -0.91313,8.1763 -1.02594,12.4385 -0.11281,4.2623 -0.44297,8.1345 -0.73369,8.6049 -0.29072,0.4703 0.0153,1.5105 0.67995,2.3114 0.85115,1.0256 0.87661,1.4562 0.0861,1.4562 -0.63603,0 -1.10866,1.6251 -1.09064,3.75 0.0298,3.5142 0.12413,3.6279 1.5,1.8089 1.43967,-1.9034 1.4682,-1.9 1.4682,0.1785 0,1.1659 -0.5991,2.7188 -1.33133,3.4511 -1.71389,1.7139 -3.01779,6.8115 -1.74229,6.8115 0.53047,0 1.64204,-1.2375 2.47015,-2.75 z m 50.79796,-29.4555 c -1.26705,-1.2671 -3.19449,-0.1812 -3.19449,1.7997 0,1.1914 0.40659,1.2586 2.10736,0.3483 1.43276,-0.7667 1.78077,-1.4544 1.08713,-2.148 z M 212.43972,992.99997 c 0,-3.3 -0.4068,-6 -0.90401,-6 -0.94178,0 -1.36165,9.7612 -0.48115,11.1858 1.07732,1.7432 1.38516,0.5907 1.38516,-5.1858 z m 0.49209,-18.3729 c -0.53738,-7.257 -0.75966,-7.2752 -1.55011,-0.1271 -0.88113,7.9681 -0.0824,13.3322 1.1356,7.6271 0.39607,-1.8552 0.5826,-5.2302 0.41451,-7.5 z m -23.14249,-163.8132 c 1.66148,-5.5172 1.66076,-14.5905 -0.002,-23.3139 -0.31448,-1.65 -0.67387,-4.35 -0.79864,-6 -0.25426,-3.3623 -1.25783,-7.7582 -2.6254,-11.5 -0.50255,-1.375 -1.15075,-5.2 -1.44045,-8.5 -0.51992,-5.9224 -1.07421,-10.5257 -1.38472,-11.5 -0.0877,-0.275 -0.59843,0.2525 -1.13508,1.1722 -0.61594,1.0556 -0.63985,3.4524 -0.0649,6.5 0.99143,5.2548 1.0163,5.7127 1.00731,18.55 -0.003,4.7972 0.51237,9.6909 1.14607,10.875 0.88156,1.6472 0.85885,2.7009 -0.0967,4.4864 -0.83499,1.5602 -1.0396,4.3357 -0.61741,8.375 0.58252,5.5713 0.47722,6.0414 -1.35301,6.0414 -1.09157,0 -1.98467,0.45 -1.98467,1 0,0.55 0.62252,1 1.38337,1 1.72845,0 2.73079,3.4859 1.38835,4.8283 -0.66258,0.6626 -0.37225,1.8411 0.86567,3.514 2.35025,3.176 3.39562,2.1643 5.71221,-5.5284 z m 20.6504,-27.2504 c 0,-0.7252 0.675,-1.8788 1.5,-2.5635 0.825,-0.6847 1.5,-1.9622 1.5,-2.839 0,-2.9956 3.26915,-10.161 4.63586,-10.161 0.75028,0 1.36414,-0.7231 1.36414,-1.607 0,-1.0175 -0.55016,-1.3958 -1.5,-1.0313 -1.07758,0.4135 -1.5,-0.103 -1.5,-1.834 0,-1.3253 -0.3972,-2.6551 -0.88267,-2.9552 -0.48547,-0.3 -0.77498,-9.214 -0.64335,-19.809 0.13163,-10.5949 0.002,-19.6822 -0.28789,-20.1939 -0.28997,-0.5118 -0.6239,-5.95741 -0.74207,-12.10137 -0.24547,-12.76206 -0.92789,-16.14144 -2.92486,-14.4841 -1.30258,1.08105 -2.52474,12.62274 -2.54306,24.01587 -0.0577,35.9078 -0.0256,36.7141 1.51523,37.9928 0.98378,0.8165 1.20194,1.673 0.60868,2.3899 -1.35088,1.6324 -2.4567,27.9558 -1.14022,27.1422 0.57212,-0.3536 1.04021,-1.2362 1.04021,-1.9614 z m 26,-37.1476 c 0,-0.661 0.64698,-1.4502 1.43773,-1.7536 1.58141,-0.6068 3.54794,-6.6188 3.55669,-10.8733 0.003,-1.4911 -0.90649,-3.5608 -2.02125,-4.5993 l -2.02682,-1.8883 1.958,-12.40069 c 1.96742,-12.46037 2.86108,-23.59233 3.60454,-44.90068 0.22068,-6.325 0.67347,-17.35 1.00619,-24.5 0.33273,-7.15 0.74449,-18.50845 0.91503,-25.241 0.17054,-6.73256 0.76517,-12.80756 1.32141,-13.5 0.6164,-0.76735 0.85523,-6.5309 0.61158,-14.759 -0.21987,-7.425 -0.37957,-14.175 -0.35489,-15 0.0247,-0.825 0.2133,-11.09286 0.41914,-22.81747 0.20585,-11.72462 0.6439,-21.58712 0.97346,-21.91667 0.32955,-0.32956 0.59919,-1.92929 0.59919,-3.55497 0,-2.54554 -0.21331,-2.77874 -1.53692,-1.68025 -0.84531,0.70155 -1.46849,1.99415 -1.38485,2.87245 0.0836,0.8783 0.0595,1.82191 -0.0536,2.09691 -0.11311,0.275 -0.40264,3.425 -0.6434,7 -0.24076,3.575 -1.04487,9.65 -1.78689,13.5 -0.74203,3.85 -1.14445,8.8 -0.89427,11 0.43876,3.85832 -0.33622,20.03311 -2.77893,58 -0.67583,10.50441 -1.72213,19.24926 -2.51259,21 -0.96934,2.14692 -1.24753,6.27015 -0.9783,14.5 0.2122,6.48691 -0.0426,12.01074 -0.58445,12.67164 -0.62769,0.76555 -0.51078,1.892 0.33731,3.25 1.03068,1.65039 1.04615,2.48156 0.0751,4.03647 -0.83729,1.34072 -1.06776,4.86886 -0.73097,11.18988 0.27054,5.07747 0.0416,11.73382 -0.50877,14.79189 -0.55037,3.05806 -1.15028,8.51213 -1.33314,12.12014 -0.18287,3.60805 -0.66778,7.10255 -1.07759,7.76565 -0.4098,0.663 -0.95797,4.011 -1.21816,7.4399 -0.26019,3.429 -0.67998,7.2155 -0.93288,8.4147 -0.35287,1.6732 0.0638,2.2546 1.79173,2.5 2.02122,0.287 2.23336,0.8312 2.07374,5.3197 -0.16189,4.5526 -0.05,4.8263 1.25,3.0589 0.7853,-1.0676 1.42781,-2.482 1.42781,-3.143 z m 15,-25.4749 c 0,-1.0675 0.45,-1.941 1,-1.941 0.55,0 1,-0.5169 1,-1.1487 0,-0.6318 1.30213,-3.89426 2.89362,-7.24997 3.24329,-6.83859 5.09073,-12.2938 5.13818,-15.1723 0.0381,-2.3102 2.23742,-5.429 3.82844,-5.429 1.74578,0 1.354,-2.78072 -0.5412,-3.84133 -1.68474,-0.94283 -1.43659,-4.35892 1.3191,-18.15867 0.27458,-1.375 0.91516,-6.07928 1.42352,-10.45395 0.50837,-4.37468 1.3739,-10.44968 1.92341,-13.5 0.92892,-5.1564 2.79932,-21.08359 4.99638,-42.54605 0.50671,-4.95 1.39764,-12.15 1.97984,-16 0.5822,-3.85 1.23192,-8.8 1.44383,-11 0.21191,-2.2 0.91559,-7.6 1.56374,-12 2.42549,-16.46559 4.64697,-41.2855 4.43046,-49.5 -0.12322,-4.675 0.15944,-9.85 0.62813,-11.5 1.9235,-6.77158 4.07416,-78.73172 2.40298,-80.4029 -0.79823,-0.79824 -2.47832,2.21421 -1.98635,3.56159 0.23269,0.63728 -0.2237,3.56228 -1.01419,6.5 -0.7905,2.93772 -2.34233,13.66631 -3.44853,23.84131 -1.1062,10.175 -2.30207,20.525 -2.6575,23 -0.35543,2.475 -0.54161,5.51161 -0.41374,6.74803 0.12787,1.23641 -0.27094,4.67308 -0.88626,7.63703 -0.61531,2.96395 -1.30407,7.35234 -1.53056,9.75197 -0.88635,9.39045 -2.60871,24.72039 -3.57991,31.86297 -1.75496,12.90678 -2.94392,30.11838 -2.76317,40 0.26672,14.58163 0.0556,16.65076 -2.24427,21.997 -1.51316,3.51741 -1.94068,5.92413 -1.46309,8.23628 0.37112,1.7967 0.70509,4.16672 0.74217,5.26672 0.0955,2.83382 -3.18182,21.5999 -4.19139,24 -0.4627,1.1 -1.13891,5.6 -1.50268,10 -2.62258,31.72171 -6.38321,61.89861 -8.04982,64.59524 -0.28194,0.45619 -0.55379,2.88021 -0.6041,5.38671 -0.0503,2.50649 -0.48423,4.80002 -0.96426,5.09672 -0.48003,0.2966 -0.87278,1.6644 -0.87278,3.0394 0,1.412 0.43519,2.231 1,1.8819 0.55,-0.3399 1,-1.4914 1,-2.559 z M 212.69493,689.75 c 0.70975,-1.89088 -0.38913,-12.75 -1.29022,-12.75 -0.78841,0 -1.7593,11.16844 -1.13166,13.01782 0.46757,1.3777 1.86212,1.22349 2.42188,-0.26782 z m 3.07968,-334 c 6.38364,-8.51443 7.48718,-13.0464 6.27011,-25.75 -0.3425,-3.575 -0.85504,-16.4 -1.13897,-28.5 -0.71975,-30.67344 -2.35147,-42.5 -5.86373,-42.5 -2.83899,0 -3.87299,6.77844 -3.64793,23.91417 0.11982,9.12221 0.20332,17.48583 0.18557,18.58583 -0.51193,31.72181 -0.6513,55.27195 -0.3329,56.25 0.65862,2.02311 1.93386,1.45983 4.52785,-2 z m 21.2842,-29.51531 c 1.47556,-0.96872 6.95766,-11.33253 8.18454,-15.47274 2.85491,-9.63406 3.96085,-22.00688 4.62672,-51.76195 0.12923,-5.775 0.54441,-18.6 0.92261,-28.5 0.61711,-16.15369 2.28431,-74.09929 2.45999,-85.5 0.10332,-6.70453 -1.83849,-24.3741 -2.78573,-25.34884 -0.45369,-0.46686 -1.14738,0.65814 -1.54153,2.5 -0.39415,1.84186 -1.14636,3.88313 -1.67159,4.53616 -0.52522,0.65303 -1.17828,4.47803 -1.45124,8.5 -0.27296,4.02197 -0.93406,10.68768 -1.4691,14.81268 -0.53505,4.125 -1.21633,11.775 -1.51396,17 -0.29764,5.225 -0.88445,11.58816 -1.30404,14.14036 -0.41958,2.55219 -0.84493,10.87719 -0.94521,18.5 -0.39694,30.17173 -2.19928,76.07636 -3.13551,79.85964 -1.87341,7.5704 -2.80367,16.01822 -2.27772,20.68441 0.28987,2.57173 -0.009,6.16981 -0.66405,7.99573 -3.98315,11.10203 -2.52054,21.39377 2.56582,18.05455 z m 136.38091,771.18301 c 0,-1.062 0.43489,-3.4473 0.96641,-5.3006 0.53153,-1.8533 1.22671,-6.5753 1.54484,-10.4934 0.31813,-3.918 1.49205,-12.2987 2.60871,-18.6237 1.11666,-6.325 2.20715,-13.075 2.42331,-15 0.21617,-1.925 0.87569,-8 1.46561,-13.5 0.58992,-5.5 1.50471,-12.475 2.03286,-15.5 1.79355,-10.2725 3.23793,-32.43223 3.51975,-54.00003 0.15452,-11.825 0.33404,-25.55 0.39894,-30.5 0.16136,-12.3076 -1.70202,-50.1011 -2.9829,-60.5 -0.57585,-4.675 -0.98407,-12.3787 -0.90716,-17.1193 0.0769,-4.7407 -0.31954,-9.4777 -0.881,-10.5268 -1.45892,-2.726 -3.18937,-16.2247 -3.18937,-24.8792 0,-8.7944 1.36895,-12.4747 4.64019,-12.4747 3.71508,0 6.81846,6.9671 6.45882,14.5 -0.48416,10.1409 -0.45023,10.7061 1.26043,21 0.95453,5.7439 1.58286,14.469 1.47631,20.5 -0.10204,5.775 -0.18624,11.625 -0.18713,13 -0.004,5.9894 1.59685,28.5955 2.90315,41 2.28531,21.7012 1.92192,46.8643 -0.92425,64 -0.93004,5.5995 -1.77818,18.53293 -2.06568,31.50003 -0.26828,12.1 -0.96091,23.8 -1.53918,26 -0.57827,2.2 -2.19275,10.75 -3.58773,19 -1.39498,8.25 -2.97815,16.8 -3.51815,19 -1.33757,5.4494 -6.76732,16.011 -9.59879,18.671 -2.20516,2.0716 -2.31799,2.0836 -2.31799,0.2467 z M 406.1419,979.24997 c -0.22872,-0.4125 0.16543,-5.25 0.8759,-10.75 0.71046,-5.5 1.77451,-23.05 2.36455,-39 0.59005,-15.95 1.56831,-32.375 2.17392,-36.5 0.60561,-4.125 1.31174,-10.425 1.56917,-14 0.4904,-6.8102 1.34086,-8.7196 3.33487,-7.4872 0.80356,0.4966 0.97309,2.0891 0.51766,4.8628 -0.37246,2.2685 -1.11684,16.2744 -1.65418,31.1244 -1.60888,44.4634 -2.85507,57.6481 -6.40355,67.75 -1.69827,4.8347 -2.04152,5.3289 -2.77834,4 z m 1474.6394,-33.7294 c -16.3876,-2.9737 -30.8429,-9.8823 -43.2841,-20.6867 l -4.2215,-3.6661 11.7479,-19.8339 c 6.4613,-10.9086 12.0107,-20.1365 12.3319,-20.5063 0.3213,-0.3699 3.9375,1.5443 8.036,4.2537 10.5235,6.9566 16.682,9.0742 28.0482,9.6446 35.7598,1.7943 63.4676,-25.401 72.0052,-70.6733 1.0945,-5.8039 13.6911,-85.4058 27.9924,-176.8931 l 26.0024,-166.34053 0,-29.40947 0,-29.40947 34.0795,0 34.0794,0 -0.5737,2.75 c -0.3155,1.5125 -14.534,91.34066 -31.5966,199.61812 -17.0626,108.27745 -31.9177,200.97745 -33.0114,206.00005 -4.6774,21.48 -14.7655,45.0774 -26.1211,61.1006 -28.2933,39.923 -74.4232,61.5082 -115.5145,54.0518 z M 413.47013,860.07877 c -0.0167,-0.7817 -0.78967,-2.2603 -1.71766,-3.2857 -1.37271,-1.5168 -1.81799,-4.9803 -2.38856,-18.5787 -0.38572,-9.1929 -1.21533,-18.7394 -1.84359,-21.2144 -0.62826,-2.475 -1.54889,-9.45 -2.04585,-15.5 -0.49696,-6.05 -1.9088,-17.1493 -3.13742,-24.6651 -2.17301,-13.293 -2.1854,-13.7921 -0.45464,-18.324 1.88579,-4.9378 3.929,-6.5368 5.87453,-4.5973 0.69464,0.6925 1.43639,6.0093 1.79728,12.8828 0.33798,6.437 1.77418,19.1286 3.19155,28.2036 2.10204,13.4587 2.62971,20.7394 2.86278,39.5 0.20532,16.5275 -0.0511,23.5629 -0.91114,25 -0.77793,1.3 -1.20752,1.5025 -1.22728,0.5788 z m -64.14883,-10.8288 c -0.0651,-0.4125 -0.003,-1.2 0.13776,-1.75 0.1409,-0.55 0.91373,-3.475 1.7174,-6.5 0.80366,-3.025 1.82511,-7.75 2.26988,-10.5 0.44477,-2.75 2.19853,-11.3 3.89723,-19 1.69871,-7.7 4.01872,-18.4702 5.15557,-23.9338 1.13686,-5.4636 2.46274,-10.6733 2.94641,-11.577 0.48366,-0.9038 1.16615,-4.0836 1.51664,-7.0662 0.35048,-2.9826 1.11963,-6.773 1.70922,-8.423 0.58959,-1.65 1.15648,-5.8849 1.25976,-9.4109 0.14808,-5.0558 0.60992,-6.7527 2.18487,-8.028 2.22031,-1.7979 3.93158,-9.5673 2.32585,-10.5597 -1.427,-0.882 -1.23904,-3.5731 0.37873,-5.4226 1.82484,-2.0863 3.61051,-12.916 3.65399,-22.16068 0.0192,-4.07995 0.68533,-11.01809 1.48032,-15.41809 0.79499,-4.4 1.45429,-10.55442 1.46512,-13.67649 0.0108,-3.12207 0.94682,-10.32207 2.08,-16 1.23417,-6.18399 2.19381,-15.53625 2.39322,-23.32351 0.18309,-7.15 1.0269,-24.025 1.87514,-37.5 1.19986,-19.06072 1.43606,-36.82163 1.06394,-80 -0.26307,-30.525 -0.65319,-59.1 -0.86692,-63.5 -0.35544,-7.31695 1.5758,-25.84777 3.14667,-30.19338 0.35919,-0.99364 1.51968,-3.05704 2.57888,-4.58532 1.05919,-1.52829 2.36482,-4.36867 2.90139,-6.31197 3.7288,-13.50462 4.74931,10.72614 4.32073,102.59067 -0.24505,52.5249 -0.57016,65.05553 -1.88101,72.5 -0.87162,4.95 -1.60623,12.825 -1.63248,17.5 -0.0262,4.675 -0.48673,11.875 -1.02331,16 -0.53657,4.125 -1.36547,11.8474 -1.84199,17.16088 -0.47652,5.31349 -1.14482,10.11138 -1.48511,10.66198 -0.34029,0.55061 -1.10767,7.00321 -1.70528,14.33912 -0.67443,8.2789 -1.64128,14.20916 -2.54903,15.63471 -1.71516,2.69354 -3.33823,21.27965 -3.86013,44.20328 -0.37898,16.646 -2.26102,37.8685 -3.50292,39.5 -0.41865,0.55 -1.0901,2.575 -1.49212,4.5 -0.83423,3.9946 -2.31917,6.2298 -3.60905,5.4326 -0.48535,-0.2999 -1.29748,0.4925 -1.80476,1.761 -2.18207,5.4566 -7.06498,22.8283 -8.09704,28.8064 -0.61719,3.575 -1.57388,7.3321 -2.12597,8.3491 -0.5521,1.0169 -1.81959,4.8419 -2.81666,8.5 -4.35273,15.9693 -6.32905,22.1509 -7.08181,22.1509 -0.44319,0 -1.10231,1.35 -1.46471,3 -0.57529,2.6193 -3.29326,4.3094 -3.61842,2.25 z m 15.80153,-62.4375 c -0.31922,-0.7977 -0.55618,-0.5607 -0.60416,0.6042 -0.0434,1.0542 0.19293,1.6448 0.52522,1.3125 0.33229,-0.3323 0.36781,-1.1948 0.0789,-1.9167 z m 290.81686,-10.0158 C 600.76759,773.26897 560.88916,733.14817 548.79439,669 c -1.43605,-7.61648 -1.79747,-14.85315 -1.82292,-36.5 -0.0303,-25.7762 0.11426,-27.88677 3.18955,-46.56421 1.77172,-10.76032 3.91933,-22.57402 4.77246,-26.25267 4.27549,-18.43553 14.6473,-39.54467 29.07916,-59.18312 32.35525,-44.02812 66.28255,-69.9032 104.07225,-79.37204 19.3081,-4.83798 43.0225,-5.75612 58.9142,-2.28094 32.9236,7.19968 62.1432,29.58454 76.8131,58.84592 l 2.6034,5.19294 -4.2379,3.40997 c -2.3309,1.87548 -10.9301,8.64608 -19.1094,15.04577 l -14.8714,11.63581 -4.7537,-6.27944 c -10.1584,-13.41896 -24.8667,-24.38943 -37.8809,-28.25424 -19.7718,-5.87159 -40.6831,-4.65056 -58.4693,3.41407 -22.1464,10.04166 -48.1593,37.13778 -61.098,63.64218 -6.7389,13.80435 -7.8855,17.92105 -11.7738,42.27117 -2.74,17.15889 -3.1587,22.33409 -3.214,39.72883 -0.05,15.69654 0.3245,21.8016 1.7398,28.37278 7.3319,34.04124 26.8484,56.47653 54.0166,62.09529 8.1039,1.6759 24.871,1.4218 34.2818,-0.5196 20.9395,-4.31982 35.0799,-12.07125 53.6397,-29.40407 l 7.4072,-6.91749 14.1737,14.19906 c 7.7956,7.80948 14.1737,14.68277 14.1737,15.27397 0,1.94098 -23.1134,25.38013 -31.4355,31.87843 -26.8457,20.9627 -57.5815,33.5056 -85.0645,34.7139 -3.85,0.1692 -11.95,-0.01 -18,-0.3956 z m 266.4776,0.1241 c -44.74,-3.7858 -76.1217,-40.6032 -85.5945,-100.42077 -2.13,-13.45029 -2.8451,-39.06888 -1.4794,-53 1.85,-18.87087 5.9018,-48.04923 8.1929,-59 7.8471,-37.50701 31.7672,-79.5625 62.8496,-110.5 25.4142,-25.29577 50.9294,-36.98545 81.0538,-37.1345 20.06501,-0.0993 33.56501,5.76844 49.16641,21.36991 6.6372,6.63717 15.9583,19.4313 17.3491,23.8134 0.3406,1.07315 0.9551,1.95119 1.3655,1.95119 0.4104,0 7.6853,-9.45 16.1665,-21 l 15.4203,-21 8.8456,0 8.8455,0 -0.5778,2.75 c -0.8273,3.93716 -54.5811,344.85187 -54.5811,346.16127 0,0.7032 -3.1421,1.0887 -8.8733,1.0887 l -8.8732,0 -8.2587,-20.25 c -4.5423,-11.1375 -8.5916,-20.6198 -8.9986,-21.0719 -0.407,-0.452 -3.3306,2.1106 -6.4969,5.6948 -18.58351,21.0362 -47.21251,38.3455 -66.47771,40.1928 -3.0368,0.2912 -6.6466,0.6525 -8.0216,0.8029 -1.375,0.1503 -6.3351,-0.051 -11.0224,-0.4478 z m 37.3768,-62.6507 c 17.9785,-9.38288 39.3447,-39.89214 49.56161,-70.77007 9.4456,-28.54674 15.45,-83.30637 12.1786,-111.06738 -3.3656,-28.56115 -13.524,-48.1617 -28.51831,-55.02631 -10.2433,-4.68956 -24.23,-2.86872 -35.0272,4.55996 -19.0811,13.12808 -40.8364,49.30875 -49.9281,83.03373 -2.8365,10.52177 -6.9157,37.47991 -8.7008,57.5 -1.8314,20.54045 0.1818,43.82552 5.2082,60.23691 4.6732,15.25874 14.5626,29.51592 23.3736,33.69696 9.1454,4.3398 20.9241,3.5397 31.8524,-2.1638 z m 254.41741,62.6239 c -8.0024,-0.8617 -12.232,-2.1488 -20.2718,-6.169 -12.832,-6.4166 -24.9639,-18.0679 -33.7018,-32.3668 l -5.2296,-8.558 -2.0343,2.4404 c -1.1189,1.3422 -8.2209,10.8372 -15.7824,21.0999 l -13.7481,18.6595 -8.5019,0 c -4.8825,0 -8.5019,-0.4169 -8.5019,-0.9794 0,-0.5387 16.425,-105.44724 36.5,-233.13002 l 36.5,-232.1505 0,-29.37003 0,-29.37002 34.0795,0 34.0794,0 -0.5754,2.75 c -1.0972,5.24417 -30.5835,191.28973 -30.5835,192.96861 0,1.24889 0.9743,0.76053 3.75,-1.8796 11.9554,-11.3716 34.7319,-21.89586 50.9593,-23.54653 16.2398,-1.65193 32.4131,1.21269 46.2476,8.19137 29.5985,14.93064 51.606,53.21768 56.9146,99.01615 2.8505,24.59142 2.4049,38.21673 -2.4362,74.5 -4.8164,36.09802 -9.0346,51.53057 -20.3633,74.5 -17.4432,35.36658 -44.2951,68.25207 -69.572,85.20457 -20.4381,13.7072 -45.8855,20.5415 -67.7282,18.1894 z m 26.2282,-59.0963 c 15.175,-4.42056 30.0411,-20.40713 46.7724,-50.29767 11.2588,-20.11383 16.2535,-35.37059 20.7882,-63.5 3.5757,-22.1802 4.5007,-55.83544 2.0028,-72.86874 -4.0551,-27.65115 -14.9487,-48.17902 -28.7085,-54.09834 -10.1284,-4.35711 -23.6368,-2.26719 -35.2744,5.4574 -19.1102,12.68468 -39.6805,47.23702 -47.9874,80.60555 -7.6621,30.77803 -11.8487,81.23874 -8.6208,103.90413 2.592,18.20008 8.0721,31.69358 16.6225,40.92907 9.7112,10.4892 21.0801,13.7502 34.4052,9.8686 z m 393,59.052 c -17.0637,-1.1682 -31.8587,-5.6741 -46.1434,-14.0534 -8.6087,-5.0499 -23.2823,-19.1642 -30.2685,-29.115 -6.535,-9.3081 -14.766,-26.18484 -18.4705,-37.8715 -5.7172,-18.03637 -7.3037,-29.65456 -7.8255,-57.30977 -0.4559,-24.16096 -0.3653,-25.72157 2.6984,-46.5 5.5875,-37.89452 8.1944,-47.56917 18.4938,-68.63483 15.9774,-32.67916 45.4212,-68.20806 70.1921,-84.69871 23.0483,-15.34388 44.4252,-21.77368 72.3964,-21.77557 40.5583,-0.003 69.2994,15.46575 85.8131,46.18478 5.5434,10.31197 8.1578,20.23305 8.8216,33.4761 0.9228,18.41093 -3.1306,33.44997 -13.2163,49.03477 -14.6554,22.64597 -39.4836,38.98607 -69.7731,45.91952 -18.0838,4.13949 -25.7024,4.74396 -67.7181,5.37281 l -41.5,0.62113 -1.1644,9.5 c -0.6405,5.225 -1.2017,15.125 -1.2472,22 -0.1548,23.38585 2.9942,39.94069 10.6521,56 3.7976,7.96387 5.8423,10.80052 12.6448,17.54288 12.4603,12.35005 22.8575,16.58759 40.6995,16.58759 24.9914,0 43.4999,-8.19177 64.4259,-28.51447 l 9.5778,-9.30171 13.8367,14.56711 13.8368,14.56711 -6.108,7.52576 c -9.3749,11.551 -15.3759,17.6311 -24.6534,24.9785 -17.7354,14.0456 -32.7664,22.6755 -48.7977,28.0163 -16.3569,5.4493 -29.5301,7.0904 -47.2029,5.8806 z m 33.3282,-232.85133 c 8.1554,-0.52826 18.6027,-1.85692 23.216,-2.95259 15.9972,-3.79933 28.2225,-11.77796 33.983,-22.1784 2.5869,-4.67062 2.9632,-6.34091 2.8986,-12.86735 -0.087,-8.75633 -1.6738,-13.05498 -6.995,-18.9449 -7.5798,-8.38992 -17.7335,-12.08104 -33.4697,-12.16708 -18.0627,-0.0988 -32.2179,5.81581 -46.8231,19.56443 -13.1438,12.37294 -26.666,34.01619 -29.6008,47.37806 l -0.6961,3.16949 21.3294,-0.0206 c 11.7312,-0.0113 28.0022,-0.4528 36.1577,-0.98106 z m 173.3877,232.83503 c -7.9956,-1.0643 -13.8022,-3.867 -19.2047,-9.2695 -5.7502,-5.7502 -8.3634,-11.7624 -9.6365,-22.1708 -1.7189,-14.0521 2.6733,-25.8889 13.7307,-37.00375 17.8492,-17.94197 45.2721,-20.38043 60.2174,-5.35454 4.986,5.01293 6.9564,8.46733 8.8211,15.46519 4.1899,15.7237 -1.0488,31.9675 -14.4108,44.684 -11.8226,11.2514 -24.5381,15.6434 -39.5172,13.6494 z m 317.5273,0.026 c -12.2912,-0.863 -18.6429,-2.0932 -31.2432,-6.0508 -13.5724,-4.263 -28.4103,-11.9613 -40.3869,-20.9538 l -10.3676,-7.7844 6.3944,-22.2851 c 3.5169,-12.25676 6.8389,-23.91654 7.3822,-25.91058 l 0.988,-3.62553 14.0407,7.77919 c 17.0518,9.44746 34.5754,17.08435 47.1064,20.52922 11.724,3.2231 31.4165,4.3753 42.1114,2.464 22.0063,-3.9328 41.8332,-15.55923 48.9464,-28.70206 8.6553,-15.99201 7.1096,-27.90597 -5.2965,-40.82562 -11.2944,-11.76194 -25.9815,-20.50439 -55.4185,-32.98756 -9.9,-4.19823 -21.375,-9.4697 -25.5,-11.71436 -34.0373,-18.52175 -50.917,-41.60822 -50.9826,-69.72931 -0.024,-10.10669 4.6273,-41.08706 7.1161,-47.40114 7.7646,-19.69894 39.0954,-47.91524 67.51,-60.79902 18.4014,-8.3436 35.595,-11.93593 57.3565,-11.98373 21.2458,-0.0467 37.3991,3.75431 56.2482,13.23556 9.2424,4.64897 22.9614,14.3212 31.0194,21.86943 l 7.0975,6.64847 -11.848,21.434 c -6.5164,11.78869 -11.9809,21.6038 -12.1433,21.81135 -0.1623,0.20755 -5.3754,-3.02508 -11.5845,-7.18363 -13.6325,-9.13037 -31.4186,-17.91368 -42.2893,-20.88372 -11.1924,-3.05793 -34.3782,-3.06597 -45.6435,-0.0158 -31.0972,8.41974 -49.6314,33.92927 -39.3677,54.18364 7.3203,14.44601 27.5732,28.85582 61.72,43.91333 7.5398,3.3248 17.4398,7.91961 22,10.21068 26.6043,13.36623 46.4079,32.68124 52.962,51.65513 1.9765,5.72193 2.3278,8.71165 2.32,19.74304 -0.01,14.30257 -1.2882,22.42313 -5.666,36 -7.5054,23.2769 -21.6443,42.97542 -41.5915,57.94602 -29.1771,21.8978 -64.8655,32.0901 -102.9901,29.4131 z m -761.2432,-5.8386 c 0,-0.5387 16.425,-105.44724 36.5,-233.13002 l 36.5,-232.1505 0,-29.37003 0,-29.37002 34.0795,0 34.0794,0 -0.5847,2.75 c -0.3216,1.5125 -17.0044,106.25 -37.0728,232.75 l -36.488,230 -0.01,29.74997 -0.01,29.75 -33.5,0 c -21.1986,0 -33.5,-0.3596 -33.5,-0.9794 z M 405.04612,661.17216 c -0.38439,-0.62196 -0.27197,-1.92853 0.24982,-2.90351 0.5218,-0.97498 1.45954,-6.27178 2.08389,-11.77067 0.62434,-5.49889 1.39726,-11.7266 1.7176,-13.83936 0.35237,-2.32398 0.071,-4.79695 -0.7122,-6.26044 -1.06179,-1.98397 -1.05563,-3.54127 0.0342,-8.65862 0.73088,-3.43176 1.50075,-9.38956 1.71081,-13.23956 0.21007,-3.85 0.78357,-7.9 1.27445,-9 1.98058,-4.43818 4.05792,-19.78659 4.4664,-33 0.23804,-7.7 0.74603,-20.525 1.12888,-28.5 0.51717,-10.77304 0.24728,-19.10409 -1.05003,-32.41253 -1.38475,-14.20549 -1.60621,-22.48359 -1.07008,-40 0.87468,-28.57728 0.79177,-32.89211 -0.88556,-46.08747 -2.48887,-19.57966 -2.79103,-29.49411 -1.1402,-37.41154 2.01544,-9.66611 6.00124,-18.34892 8.22408,-17.91563 1.51407,0.29512 1.7142,3.11892 2.04302,28.82717 0.20049,15.675 0.51853,35.475 0.70675,44 0.38202,17.30252 0.84699,101.05571 0.63011,113.5 -0.0767,4.4 -0.0963,15.11589 -0.0436,23.8131 0.065,10.73465 -0.41576,18.44235 -1.49704,24 -4.18054,21.48749 -5.7646,28.57072 -7.42177,33.1869 -0.98722,2.75 -2.11914,7.22352 -2.51537,9.94116 -0.39624,2.71763 -1.57995,7.12179 -2.63049,9.78702 -1.05053,2.66522 -1.91006,6.31819 -1.91006,8.11771 0,3.72421 -2.27686,7.6332 -3.3936,5.82627 z M 438.119,567.25 c -0.24132,-0.4125 0.16226,-3 0.89685,-5.75 0.73458,-2.75 1.38328,-8.375 1.44156,-12.5 0.0583,-4.125 0.51829,-10.875 1.02226,-15 5.00463,-40.96306 3.78639,-140.73071 -2.17351,-178 -0.5717,-3.575 -1.40826,-8.83709 -1.85902,-11.69353 -0.45077,-2.85644 -1.17893,-5.77496 -1.61813,-6.4856 C 434.17303,335.14144 436.90956,323 439.16946,323 c 0.9214,0 3.37778,5.37615 3.88368,8.5 0.17814,1.1 0.82064,4.475 1.42777,7.5 0.60713,3.025 1.52742,10.9 2.04508,17.5 0.51766,6.6 1.61046,15.825 2.42845,20.5 0.81798,4.675 1.7167,14.8 1.99716,22.5 1.96588,53.97383 2.59032,68.65396 3.12644,73.5 0.58115,5.25306 -0.12524,13.90994 -3.30476,40.5 -0.7892,6.6 -1.82142,15.6 -2.29381,20 -0.87549,8.15451 -3.85799,21.2032 -6.79986,29.75 -1.55372,4.51394 -2.58331,5.67058 -3.56061,4 z m -73.29675,-95 c 0.28453,-0.9625 1.18974,-5.35 2.01158,-9.75 0.82185,-4.4 2.61168,-12.275 3.97741,-17.5 1.36572,-5.225 2.77198,-11.975 3.125,-15 0.35303,-3.025 1.06969,-6.8839 1.59258,-8.57533 0.52289,-1.69144 1.60591,-6.86644 2.4067,-11.5 0.8008,-4.63357 2.13829,-11.47822 2.9722,-15.21034 0.83391,-3.73212 2.39991,-12.28212 3.47999,-19 1.08009,-6.71788 2.85906,-16.93933 3.95327,-22.71433 1.09421,-5.775 2.72495,-15.675 3.62386,-22 0.8989,-6.325 2.68743,-17.125 3.97451,-24 2.20424,-11.77415 5.74665,-37.16539 7.0454,-50.5 0.32141,-3.3 1.41944,-10.95 2.44008,-17 2.14731,-12.72855 4.61998,-33.01755 6.03269,-49.5 0.54212,-6.325 1.43129,-16.225 1.97594,-22 2.17646,-23.07739 2.84179,-53.14406 1.61539,-73.000001 -0.69912,-11.31914 -1.7236,-20.44394 -2.44195,-21.75 l -1.23755,-2.25 10.15041,0 10.15041,0 -0.65149,5.25 c -0.35832,2.8875 -1.04303,14.33729 -1.52158,25.443981 -0.47855,11.10668 -1.2205,20.76094 -1.64878,21.4539 -0.42827,0.69297 -1.15614,10.73068 -1.61747,22.30603 -0.46134,11.57535 -1.2504,24.64609 -1.75346,29.04609 -0.50307,4.4 -1.38239,14.22645 -1.95406,21.83656 -0.57166,7.61011 -1.81876,17.51011 -2.77131,22 -0.95255,4.48989 -1.78435,11.98844 -1.84844,16.66344 -0.16071,11.72415 -3.14372,29.41975 -6.04686,35.87084 -2.69403,5.98643 -2.95246,9.09844 -1.27607,15.36627 0.91872,3.43497 0.82133,5.84309 -0.5,12.36413 -0.90251,4.45408 -1.64093,9.29463 -1.64093,10.75677 0,1.46215 -1.125,7.41964 -2.5,13.23888 -2.88747,12.22029 -3.08035,16.06172 -1.00616,20.0388 0.82161,1.57537 1.49396,3.98931 1.49411,5.36431 3.8e-4,3.38926 -5.39643,23.08053 -7.75454,28.2939 -1.04637,2.31336 -2.86288,7.1311 -4.03668,10.7061 -6.04272,18.40409 -7.15645,21.97278 -8.58232,27.5 -0.8513,3.3 -2.27226,9.15 -3.15768,13 -0.88542,3.85 -3.1504,11.32718 -5.03329,16.61595 -1.88289,5.28878 -3.42344,10.4657 -3.42344,11.50428 0,2.6392 -7.76505,18.37977 -9.067,18.37977 -0.58728,0 -0.83499,-0.7875 -0.55047,-1.75 z M 2060.9397,350.66534 c -9.363,-3.11133 -15.0438,-8.11914 -18.7726,-16.54859 -2.9118,-6.58278 -2.0534,-19.33655 1.8589,-27.61675 3.8829,-8.21803 12.515,-16.70921 21.1121,-20.76746 6.033,-2.84788 7.7621,-3.20579 15.3016,-3.16729 13.5134,0.069 21.6095,4.83353 27.0736,15.93275 2.867,5.8237 3.1119,7.07384 2.7849,14.21533 -0.2906,6.34697 -0.9697,9.07151 -3.5854,14.38409 -8.4931,17.25029 -30.573,28.61891 -45.7731,23.56792 z M 415.43972,327.81658 c 0,-2.85088 0.84779,-7.68838 1.88399,-10.75 1.03619,-3.06162 2.43877,-9.61658 3.11684,-14.56658 0.67807,-4.95 2.30528,-12.22559 3.61601,-16.16797 1.55695,-4.68293 2.38316,-9.48209 2.38316,-13.84292 0,-3.67122 0.86086,-11.02063 1.91302,-16.33203 1.05216,-5.31139 2.41468,-14.15708 3.02782,-19.65708 0.61315,-5.5 1.80171,-14.05 2.64126,-19 0.83955,-4.95 1.98262,-11.925 2.54017,-15.5 0.55755,-3.575 1.62029,-9.425 2.36164,-13 1.31171,-6.32545 2.3901,-14.50764 4.48111,-34 0.5605,-5.225 1.68872,-15.35 2.50715,-22.5 1.92483,-16.81589 3.43888,-37.211361 3.76717,-50.747001 l 0.26066,-10.74701 2.72695,-0.003 c 1.79251,-0.002 3.27699,0.83649 4.33215,2.44685 1.45135,2.21505 1.49448,5.54558 0.44996,34.750011 -1.12566,31.47354 -2.46666,49.32082 -5.47002,72.80015 -0.80906,6.325 -1.48633,13.69812 -1.50503,16.3847 -0.0464,6.65919 -1.6419,15.92042 -5.11477,29.68854 -1.60558,6.36528 -2.91924,12.51392 -2.91924,13.66364 0,1.14973 -2.07588,8.09177 -4.61306,15.42676 -2.53718,7.335 -5.00787,16.03636 -5.49042,19.33636 -0.48254,3.3 -1.97118,9.15 -3.30808,13 -1.3369,3.85 -2.9474,10.825 -3.57889,15.5 -0.63148,4.675 -2.02152,11.2 -3.08897,14.5 -1.06745,3.3 -1.93627,7.2007 -1.9307,8.66821 0.015,3.9645 -0.97656,5.83179 -3.09687,5.83179 -1.61388,0 -1.89301,-0.76432 -1.89301,-5.18342 z m 27,-49.62875 c 0,-0.44669 0.9,-2.67496 2,-4.95169 1.1,-2.27674 2,-4.96114 2,-5.96533 0,-1.00419 0.62436,-2.7172 1.38747,-3.80669 1.54389,-2.20422 2.59539,-5.74286 5.63515,-18.96412 1.13807,-4.95 2.55084,-10.125 3.13948,-11.5 1.6263,-3.79883 4.8379,-19.80723 4.8379,-24.11477 0,-2.09615 0.96171,-6.19035 2.13713,-9.09821 1.67853,-4.15249 2.30708,-8.59391 2.92911,-20.69753 0.43558,-8.47578 1.51568,-20.85078 2.4002,-27.5 2.72959,-20.5191 3.44969,-26.64271 4.68426,-39.83443 0.65602,-7.00971 1.41476,-12.522931 1.6861,-12.251591 0.53574,0.535741 1.63432,12.280581 3.13317,33.496531 0.56605,8.01244 0.5913,14.9227 0.0621,17 -0.4904,1.925 -1.12255,9.125 -1.40478,16 -0.38249,9.31707 -1.14555,14.58306 -2.99671,20.6806 -1.36596,4.49934 -3.18559,11.92434 -4.04363,16.5 -0.85804,4.57567 -2.44465,10.83455 -3.52579,13.90861 -1.08114,3.07407 -2.41542,8.24907 -2.96507,11.5 -2.47961,14.66571 -4.28063,20.82661 -8.69448,29.74183 -0.77089,1.55707 -1.40162,3.38215 -1.40162,4.05572 0,0.67357 -1.16938,2.77461 -2.59862,4.66896 -1.42924,1.89435 -3.43825,5.35678 -4.46446,7.69428 -1.63856,3.73231 -3.93691,5.7393 -3.93691,3.43783 z M 337.20346,110.4304 c -0.28338,-0.28337 0.0441,-3.53364 0.72773,-7.22281 0.68363,-3.689171 1.29693,-7.382591 1.36289,-8.207591 0.0659,-0.825 0.63893,-6.5625 1.27328,-12.75 l 1.15337,-11.25 4.8595,0 c 2.67272,0 4.85949,0.24341 4.85949,0.5409 0,1.97602 -4.85654,15.10518 -7.67616,20.75174 -1.86556,3.73595 -3.3108,7.33595 -3.21163,8.000001 0.0992,0.66405 -0.16963,3.12983 -0.59731,5.47952 -0.75353,4.13991 -1.68773,5.72168 -2.75116,4.65824 z"
     id="path3110"
     inkscape:connector-curvature="0" />
</svg>
